PathFileType	4	(X/Y/Z)	/Users/itak/Documents/Research/Walk-IL/dataset/trc/00031_00004.trc
DataRate	CameraRate	NumFrames	NumMarkers	Units	OrigDataRate	OrigDataStartFrame	OrigNumFrames
100.000000	100.000000	4	53	mm	100.000000	477	764
Frame#	Time	RPSI			LPSI			L3			STRN			T10			C7			CLAV			RBAK			LBAK			LSHO			LUPA			LAEL			LAOL			LWTS			LWPS			LFRA			LIFD			LHPS			LHTS			RSHO			RUPA			RAEL			RAOL			RWTS			RWPS			RFRA			RIFD			RHTS			RHPS			RBHD			LFHD			RFHD			LBHD			LHIP			RHIP			RASI			LASI			LKNE			LTHI			LANK			LTIP			LTOE			LMT1			LMT5			LHEE			RKNE			RTHI			RANK			RTIP			RTOE			RMT1			RMT5			RHEE			
		X1	Y1	Z1	X2	Y2	Z2	X3	Y3	Z3	X4	Y4	Z4	X5	Y5	Z5	X6	Y6	Z6	X7	Y7	Z7	X8	Y8	Z8	X9	Y9	Z9	X10	Y10	Z10	X11	Y11	Z11	X12	Y12	Z12	X13	Y13	Z13	X14	Y14	Z14	X15	Y15	Z15	X16	Y16	Z16	X17	Y17	Z17	X18	Y18	Z18	X19	Y19	Z19	X20	Y20	Z20	X21	Y21	Z21	X22	Y22	Z22	X23	Y23	Z23	X24	Y24	Z24	X25	Y25	Z25	X26	Y26	Z26	X27	Y27	Z27	X28	Y28	Z28	X29	Y29	Z29	X30	Y30	Z30	X31	Y31	Z31	X32	Y32	Z32	X33	Y33	Z33	X34	Y34	Z34	X35	Y35	Z35	X36	Y36	Z36	X37	Y37	Z37	X38	Y38	Z38	X39	Y39	Z39	X40	Y40	Z40	X41	Y41	Z41	X42	Y42	Z42	X43	Y43	Z43	X44	Y44	Z44	X45	Y45	Z45	X46	Y46	Z46	X47	Y47	Z47	X48	Y48	Z48	X49	Y49	Z49	X50	Y50	Z50	X51	Y51	Z51	X52	Y52	Z52	X53	Y53	Z53	

478	4.77	956.7177734375	1024.35009765625	-3.767145395278931	1119.737182617188	1023.999328613281	-21.76646423339844	1044.327392578125	1087.357055664062	-22.86333274841309	1054.571166992188	1278.892333984375	194.8199768066406	1043.959106445312	1231.136596679688	-53.936279296875	1047.935668945312	1500.12109375	-2.757405042648315	1052.120361328125	1404.726684570312	152.3974456787109	972.0745239257812	1359.4423828125	-57.41123199462891	1145.807373046875	1465.568359375	-25.73462867736816	1221.658203125	1474.591186523438	73.99695587158203	1310.12255859375	1362.95068359375	28.50001525878906	1365.552734375	1155.834838867188	-1.979503035545349	1272.668090820312	1136.208129882812	-50.21233749389648	1351.793701171875	887.6875	53.6004753112793	1391.942626953125	890.7198486328125	-26.48263168334961	1388.864501953125	1041.551025390625	-5.268181800842285	1358.597534179688	697.9971923828125	48.98643112182617	1404.629028320312	797.8385009765625	-7.36827564239502	1376.599853515625	793.558837890625	58.65044021606445	876.6679077148438	1472.928466796875	76.63180541992188	808.4777221679688	1401.498168945312	60.27760696411133	784.2599487304688	1136.675048828125	10.61820411682129	880.5267944335938	1109.51123046875	12.14135074615479	815.2691650390625	880.0347900390625	145.5935516357422	752.5447387695312	861.7685546875	79.20582580566406	768.5166015625	1059.434936523438	22.40883445739746	832.1682739257812	696.1594848632812	174.6310729980469	801.2307739257812	772.9234619140625	183.3597106933594	753.690185546875	763.1378173828125	124.8104400634766	1091.021728515625	1689.751586914062	133.3151702880859	904.029296875	1632.0830078125	230.2342224121094	989.4992065429688	1641.444091796875	276.9554748535156	962.6038818359375	1670.57421875	70.56383514404297	1242.92529296875	935.1762084960938	77.20641326904297	876.9334716796875	906.0638427734375	122.3212890625	951.439453125	945.3281860351562	213.6451568603516	1183.445556640625	982.159912109375	191.5947723388672	1217.39306640625	527.806884765625	277.7789306640625	1250.600708007812	650.1096801757812	203.3281860351562	1275.471557617188	25.22523880004883	213.3478393554688	1266.092407226562	281.7489929199219	229.5647277832031	1155.9599609375	30.83377075195312	409.8689880371094	1157.897094726562	39.13429260253906	349.0821838378906	1265.1767578125	23.24466896057129	337.8810424804688	1241.1650390625	34.31679153442383	134.7449188232422	941.42529296875	461.716552734375	107.4364547729492	894.7029418945312	734.4931640625	132.3225402832031	929.7684936523438	171.5573272705078	-307.4412231445312	939.5357666015625	359.6602172851562	16.6346492767334	1042.879760742188	28.63404083251953	-195.4443664550781	1048.758422851562	70.87133026123047	-232.9040069580078	952.9185180664062	55.96695709228516	-216.5753936767578	952.279052734375	223.916015625	-347.8109436035156	
479	4.78	959.9760131835938	1025.254638671875	3.826043367385864	1123.086303710938	1025.380493164062	-12.13614463806152	1047.938842773438	1088.8935546875	-14.34228706359863	1054.705932617188	1280.219848632812	203.8477935791016	1048.60498046875	1232.654907226562	-45.04296875	1052.028930664062	1501.556762695312	6.401901721954346	1053.047973632812	1406.08544921875	161.4400024414062	977.1043701171875	1360.964111328125	-49.81552505493164	1150.369506835938	1467.001953125	-14.65366554260254	1224.17333984375	1476.018798828125	86.63816833496094	1313.854125976562	1364.395141601562	43.55249786376953	1370.50146484375	1157.26123046875	15.23906803131104	1279.005126953125	1137.346313476562	-35.37628555297852	1355.804565429688	889.050048828125	70.98696899414062	1398.14697265625	892.1951904296875	-7.793410778045654	1394.12109375	1043.063720703125	12.86571025848389	1363.062255859375	699.7026977539062	67.2484130859375	1410.44091796875	799.3238525390625	11.91821670532227	1380.743408203125	795.1156005859375	77.10357666015625	879.2564697265625	1474.45458984375	82.45596313476562	811.3668212890625	1403.168212890625	64.60865783691406	787.917724609375	1138.786743164062	13.23101234436035	883.852783203125	1111.121948242188	17.1696834564209	814.9052734375	880.1856079101562	145.3347930908203	753.6311645507812	863.1939697265625	77.11518859863281	771.7492065429688	1061.638549804688	23.80639266967773	830.269775390625	695.625244140625	171.4796752929688	799.5358276367188	772.3946533203125	180.8646392822266	753.156982421875	763.7814331054688	121.0545349121094	1092.488525390625	1691.104614257812	143.2077331542969	903.731689453125	1633.340454101562	236.7352905273438	988.5776977539062	1642.802001953125	285.0803527832031	965.188720703125	1671.932983398438	78.21921539306641	1245.265747070312	936.8773803710938	87.85001373291016	878.6098022460938	906.4085083007812	128.7032928466797	952.21435546875	946.8468017578125	221.3059997558594	1184.355102539062	983.5601196289062	201.8192443847656	1219.767333984375	527.0581665039062	283.4488220214844	1252.959838867188	650.2586059570312	210.4270935058594	1275.737060546875	25.03378105163574	213.3002166748047	1267.738403320312	281.3026123046875	231.9919738769531	1156.296020507812	30.8003044128418	409.9078674316406	1158.432006835938	39.33072280883789	349.139892578125	1265.71240234375	23.09259605407715	337.8365478515625	1241.514770507812	34.21413421630859	134.7958526611328	942.0072021484375	462.0610046386719	125.0421676635742	896.1957397460938	735.8858642578125	142.6222076416016	937.4896240234375	182.4211120605469	-296.0458068847656	941.5829467773438	361.2122192382812	33.3611946105957	1042.0654296875	28.48666954040527	-188.2936096191406	1050.584228515625	74.20646667480469	-223.8853149414062	954.2943725585938	61.76956558227539	-210.5329132080078	962.0634765625	235.6814270019531	-333.6301574707031	
480	4.79	963.1284790039062	1026.255493164062	11.25899791717529	1126.309814453125	1026.785278320312	-2.680664300918579	1051.439575195312	1090.481323242188	-5.98530912399292	1054.684814453125	1281.572265625	212.7470092773438	1053.088989257812	1234.238891601562	-36.24338531494141	1055.928955078125	1503.036987304688	15.53291034698486	1053.810913085938	1407.468994140625	170.3859100341797	981.9851684570312	1362.55224609375	-42.25337219238281	1154.69580078125	1468.490600585938	-3.632020235061646	1226.435913085938	1477.46484375	99.16706085205078	1317.29248046875	1365.878540039062	58.53300094604492	1375.13134765625	1158.726196289062	32.55294799804688	1285.134399414062	1138.488525390625	-20.48340606689453	1359.4365234375	890.4946899414062	88.55792999267578	1404.07373046875	893.7218627929688	11.21455955505371	1399.051513671875	1044.609741210938	31.18777275085449	1367.208129882812	701.4849243164062	85.85653686523438	1415.947631835938	800.86328125	31.59005355834961	1384.537841796875	796.77490234375	95.84497833251953	881.7186279296875	1475.971435546875	88.22647857666016	814.15625	1404.859741210938	68.89067077636719	791.4481201171875	1140.940063476562	15.75438117980957	886.9592895507812	1112.694946289062	22.11740112304688	814.7112426757812	880.4996337890625	144.9356079101562	754.8429565429688	864.7424926757812	75.03713226318359	774.9207763671875	1063.882202148438	25.1448917388916	828.77880859375	695.3552856445312	168.2672271728516	798.1686401367188	772.1004638671875	178.2910919189453	752.9312133789062	764.6013793945312	117.3367462158203	1093.79052734375	1692.475708007812	153.0290679931641	903.3421630859375	1634.652465820312	243.207763671875	987.54150390625	1644.213012695312	293.1146850585938	967.6339111328125	1673.329711914062	85.84999084472656	1247.39697265625	938.5098876953125	98.30400085449219	879.9269409179688	906.7786865234375	134.6867370605469	952.8468017578125	948.458251953125	228.7891387939453	1185.12451171875	984.9320678710938	211.8368988037109	1221.885131835938	526.2626953125	288.6640014648438	1255.039428710938	650.3612060546875	217.2005920410156	1275.9169921875	24.89980506896973	213.2608795166016	1269.236572265625	280.8238830566406	234.13720703125	1156.549072265625	30.83432197570801	409.9149169921875	1158.800415039062	39.52827072143555	349.1470336914062	1266.112670898438	23.03840065002441	337.7975463867188	1241.777221679688	34.13040542602539	134.8306579589844	942.3343505859375	462.7918701171875	142.5878601074219	897.4322509765625	737.4673461914062	152.8087768554688	945.4098510742188	192.8767547607422	-283.6382141113281	943.5218505859375	363.0088806152344	50.31085586547852	1040.905883789062	28.55862045288086	-179.2987213134766	1052.3251953125	77.45468902587891	-213.2793273925781	955.7205810546875	68.05332183837891	-203.0343475341797	972.4334106445312	246.4832763671875	-318.620849609375	
481	4.8	966.171630859375	1027.353881835938	18.55642509460449	1129.402587890625	1028.2021484375	6.616872787475586	1054.825439453125	1092.107666015625	2.229170083999634	1054.530151367188	1282.9443359375	221.5148773193359	1057.409790039062	1235.869873046875	-27.53781509399414	1059.633544921875	1504.550170898438	24.62080955505371	1054.420776367188	1408.870727539062	179.2250213623047	986.7130126953125	1364.189819335938	-34.72853088378906	1158.781982421875	1470.022583007812	7.308501243591309	1228.452026367188	1478.935180664062	111.5521697998047	1320.435668945312	1367.404907226562	73.39661407470703	1379.421142578125	1160.232788085938	49.9151611328125	1291.015258789062	1139.627319335938	-5.541523933410645	1362.710083007812	892.0471801757812	106.3143310546875	1409.687622070312	895.3046875	30.50958824157715	1403.6337890625	1046.194580078125	49.65397262573242	1371.061401367188	703.3485717773438	104.8041915893555	1421.136108398438	802.4725952148438	51.6130256652832	1387.99658203125	798.5513916015625	114.8608016967773	884.0577392578125	1477.45947265625	93.94268035888672	816.8494873046875	1406.552734375	73.12969207763672	794.8606567382812	1143.121337890625	18.19252777099609	889.8695678710938	1114.232421875	26.9659309387207	814.6874389648438	880.9561767578125	144.4141540527344	756.1742553710938	866.39599609375	72.99481964111328	778.0303344726562	1066.151000976562	26.42800712585449	827.6907348632812	695.3290405273438	165.0375671386719	797.1237182617188	772.0221557617188	175.6737670898438	753.0096435546875	765.5781860351562	113.6937484741211	1094.922973632812	1693.855102539062	162.7738342285156	902.8668212890625	1636.002075195312	249.6450500488281	986.3900146484375	1645.652221679688	301.0544738769531	969.93359375	1674.75146484375	93.45398712158203	1249.319091796875	940.0596923828125	108.5852127075195	880.9496459960938	907.2528686523438	140.4144287109375	953.335205078125	950.1499633789062	236.1153106689453	1185.756225585938	986.2638549804688	221.6679534912109	1223.726196289062	525.43603515625	293.489501953125	1256.826538085938	650.4349975585938	223.7110443115234	1276.026000976562	24.8141918182373	213.2315979003906	1270.572143554688	280.3278198242188	236.0595855712891	1156.742919921875	30.87469673156738	409.9124450683594	1159.026245117188	39.69743347167969	349.1283569335938	1266.399169921875	23.0344409942627	337.7707824707031	1241.962768554688	34.09029769897461	134.8557891845703	942.4050903320312	463.9116516113281	159.9826812744141	898.3993530273438	739.2113647460938	162.8444519042969	953.4403686523438	202.6543121337891	-270.2740783691406	945.3187255859375	365.02978515625	67.38592529296875	1039.494384765625	28.90513801574707	-168.2738342285156	1054.009887695312	80.54961395263672	-200.9140777587891	957.2460327148438	74.62268829345703	-193.8934936523438	983.2581787109375	256.0689392089844	-302.9045715332031	
